<?xml version="1.0" standalone="no"?>
<!DOCTYPE svg PUBLIC "-//W3C//DTD SVG 20010904//EN"
 "http://www.w3.org/TR/2001/REC-SVG-20010904/DTD/svg10.dtd">
<svg version="1.0" xmlns="http://www.w3.org/2000/svg"
 width="300.000000pt" height="259.000000pt" viewBox="0 0 300.000000 259.000000"
 preserveAspectRatio="xMidYMid meet">
<metadata>
Created by potrace 1.10, written by Peter Selinger 2001-2011
</metadata>
<g transform="translate(0.000000,259.000000) scale(0.100000,-0.100000)"
fill="#000000" stroke="none">
<path d="M1087 2390 c-32 -25 -96 -186 -129 -322 -12 -54 -25 -96 -28 -95 -54
32 -237 112 -308 136 -174 58 -210 40 -198 -97 9 -96 51 -342 69 -402 12 -42
11 -49 -15 -111 -69 -165 -104 -372 -95 -558 8 -146 26 -222 81 -336 148 -304
501 -437 1120 -422 417 9 676 88 847 257 117 116 157 213 179 437 19 193 -8
381 -84 585 -36 97 -37 98 -22 150 8 29 22 96 31 148 9 52 20 120 25 150 15
87 16 188 2 202 -41 41 -330 -49 -464 -144 l-27 -19 -11 43 c-21 82 -91 290
-111 331 -30 59 -48 77 -79 77 -63 0 -218 -139 -311 -279 -28 -42 -52 -77 -53
-79 -2 -1 -21 26 -44 60 -83 128 -199 245 -284 289 -47 24 -59 24 -91 -1z
m119 -56 c19 -17 35 -29 37 -27 9 8 87 -88 81 -100 -4 -6 -3 -9 1 -5 11 10 56
-40 113 -127 25 -38 47 -71 48 -73 1 -2 11 5 22 16 11 11 26 24 34 28 15 9 88
106 88 118 0 9 144 154 180 181 28 21 34 22 47 10 7 -8 20 -12 28 -9 10 4 15
0 15 -15 0 -12 4 -21 9 -21 8 0 36 -55 36 -72 0 -3 3 -9 7 -13 4 -4 4 -14 1
-23 -4 -9 -2 -13 4 -9 6 4 13 -10 17 -35 4 -23 13 -56 21 -72 7 -17 22 -59 31
-93 18 -61 19 -62 49 -56 16 3 35 6 40 7 6 0 12 3 15 7 3 3 22 13 43 22 20 10
37 22 37 27 0 6 3 9 8 8 4 -1 20 4 35 10 16 7 33 12 38 12 6 0 23 7 38 15 16
8 40 16 55 19 14 3 41 12 58 20 39 20 69 21 62 2 -3 -8 5 -21 17 -29 21 -15
21 -18 10 -89 -7 -40 -14 -89 -16 -109 -1 -20 -6 -49 -9 -65 -4 -16 -8 -43
-10 -60 -2 -16 -11 -53 -19 -81 -17 -57 -16 -133 3 -178 7 -16 14 -34 16 -40
1 -5 9 -26 17 -45 33 -77 67 -278 69 -405 1 -56 -15 -230 -21 -230 -1 0 -4
-17 -6 -37 -7 -63 -70 -180 -136 -252 -34 -37 -67 -65 -74 -62 -7 2 -15 -4
-18 -15 -3 -10 -11 -19 -17 -19 -7 0 -10 7 -6 16 3 8 2 12 -4 9 -6 -3 -10 -16
-10 -27 0 -12 -3 -19 -6 -15 -4 3 -19 0 -35 -8 -25 -13 -55 -22 -83 -24 -5 -1
-6 -4 -2 -8 8 -8 -173 -61 -229 -67 -22 -2 -71 -10 -110 -17 -47 -9 -152 -14
-320 -14 -241 0 -279 3 -455 38 -100 19 -104 21 -112 32 -5 6 -8 5 -8 -3 0 -9
-17 -4 -52 15 -29 15 -55 32 -56 36 -2 4 -11 2 -20 -5 -10 -8 -13 -8 -9 -1 4
7 -10 20 -40 34 -26 13 -59 32 -73 43 -54 44 -140 136 -140 150 0 7 -7 16 -15
20 -8 3 -15 11 -15 19 0 7 -9 32 -20 55 -12 24 -18 47 -15 52 3 6 -1 10 -9 10
-9 0 -13 6 -10 14 3 8 -2 30 -11 50 -9 19 -14 39 -11 45 4 5 2 13 -4 16 -6 4
-8 15 -5 25 3 10 1 21 -5 25 -5 3 -10 12 -10 18 0 7 4 6 10 -3 8 -13 10 -12
10 3 0 9 -4 17 -8 17 -9 0 -8 98 2 138 3 12 0 22 -6 22 -6 0 -7 5 -2 13 5 6 9
27 9 45 0 17 2 32 6 32 3 0 4 12 1 26 -4 20 -2 25 8 19 10 -6 11 -4 4 6 -12
20 -14 39 -3 39 6 0 9 6 8 13 -3 15 10 73 24 107 5 14 11 30 12 35 6 30 19 55
28 55 6 0 8 2 5 6 -3 3 0 25 8 50 7 24 11 50 9 57 -2 6 -6 26 -9 42 -2 17 -11
62 -20 101 -10 39 -19 89 -21 110 -2 21 -7 62 -11 89 -5 28 -8 67 -9 88 0 20
-3 37 -7 37 -5 0 -8 11 -8 24 0 21 4 24 47 24 50 1 232 -54 277 -83 14 -9 57
-32 96 -50 51 -25 70 -30 70 -20 0 8 6 18 13 22 17 10 52 101 44 110 -4 3 -3
11 2 17 11 15 32 74 38 111 3 17 9 32 14 33 5 2 9 12 9 22 0 28 25 81 35 73 4
-5 5 -2 1 5 -12 20 0 28 40 28 28 0 45 -8 70 -32z"/>
<path d="M652 1337 c-34 -38 -45 -93 -39 -192 12 -189 110 -319 266 -355 66
-15 194 -19 236 -7 17 4 35 10 40 11 119 34 183 96 256 247 8 18 25 158 20
174 -2 6 -3 21 -3 35 0 14 -13 38 -29 55 -24 26 -37 31 -87 33 -32 2 -71 -2
-87 -9 -42 -16 -185 -12 -206 7 -13 11 -55 16 -182 18 -159 4 -166 3 -185 -17z
m372 -54 c17 -51 50 -78 95 -78 46 0 75 23 92 69 l11 32 72 -4 c106 -5 99 3
94 -120 -4 -89 -9 -117 -32 -168 -32 -72 -93 -135 -156 -163 -102 -45 -250
-49 -355 -10 -73 27 -120 70 -157 147 -32 64 -33 72 -33 182 0 63 3 123 8 133
7 18 20 19 179 15 l171 -3 11 -32z m141 17 l30 -1 -32 -29 c-35 -31 -57 -31
-92 1 -32 30 -26 41 22 35 23 -2 56 -5 72 -6z"/>
<path d="M1954 1334 c-6 -9 -37 -16 -86 -21 -63 -5 -82 -3 -103 11 -18 12 -41
15 -87 13 -78 -5 -90 -10 -112 -47 -32 -56 -14 -214 35 -302 11 -21 18 -38 15
-38 -8 0 22 -36 59 -71 125 -120 392 -142 543 -45 94 61 145 162 151 301 1 33
5 63 7 66 2 4 0 19 -6 33 -5 15 -12 39 -15 54 -10 56 -29 62 -219 61 -137 -1
-174 -4 -182 -15z m-189 -54 c8 -38 58 -80 95 -80 37 0 87 42 95 80 l7 30 178
0 178 0 8 -32 c12 -56 7 -193 -10 -250 -44 -152 -173 -228 -366 -215 -117 7
-191 37 -256 101 -73 74 -97 140 -98 276 l-1 105 75 6 c41 3 78 6 82 7 3 1 9
-11 13 -28z m153 0 c-7 -11 -25 -24 -41 -30 -25 -8 -33 -6 -60 20 l-32 30 73
0 c69 0 72 -1 60 -20z"/>
<path d="M1431 882 c-27 -10 -68 -40 -104 -77 -83 -83 -90 -92 -82 -104 3 -6
2 -11 -4 -11 -19 0 -44 -64 -47 -119 -2 -46 1 -57 26 -83 23 -23 38 -30 82
-33 29 -2 55 -5 58 -6 11 -3 327 1 352 4 35 5 66 32 83 74 12 28 11 37 -6 72
-10 22 -19 47 -19 56 0 15 -6 25 -38 60 -7 8 -10 15 -5 15 4 0 0 5 -9 11 -10
5 -18 14 -18 20 0 28 -114 113 -172 127 -26 7 -48 12 -50 11 -2 0 -23 -8 -47
-17z m145 -50 c66 -48 124 -120 161 -198 30 -63 34 -80 26 -107 l-9 -32 -89
-7 c-122 -10 -400 1 -421 16 -30 23 183 146 252 146 33 0 98 -27 174 -73 36
-22 68 -41 73 -44 4 -2 7 -2 7 2 0 3 -30 25 -67 49 -161 103 -226 100 -395
-15 -32 -21 -60 -39 -63 -39 -13 0 -2 51 24 105 38 81 103 160 159 196 62 39
115 39 168 1z"/>
</g>
</svg>
