<?xml version="1.0" encoding="UTF-8"?>
<!-- Uploaded to: SVG Find, www.svgrepo.com, Generator: SVG Find Mixer Tools -->
<svg fill="#FFFFFF" width="800px" height="800px" version="1.1" viewBox="144 144 512 512" xmlns="http://www.w3.org/2000/svg">
 <path d="m384.25 525.95c0 8.3516-3.3164 16.363-9.2227 22.266-5.9062 5.9062-13.914 9.2227-22.266 9.2227s-16.359-3.3164-22.266-9.2227c-5.9023-5.9023-9.2227-13.914-9.2227-22.266 0-8.3477 3.3203-16.359 9.2227-22.266 5.9062-5.9023 13.914-9.2227 22.266-9.2227s16.359 3.3203 22.266 9.2227c5.9062 5.9062 9.2227 13.918 9.2227 22.266zm62.977-15.742c-8.3516 0-16.359 3.3164-22.266 9.2227s-9.2227 13.914-9.2227 22.266c0 8.3516 3.3164 16.359 9.2227 22.266s13.914 9.2227 22.266 9.2227c8.3516 0 16.359-3.3164 22.266-9.2227s9.2227-13.914 9.2227-22.266c0-8.3516-3.3164-16.359-9.2227-22.266s-13.914-9.2227-22.266-9.2227zm0-47.23c0-8.3516-3.3164-16.363-9.2227-22.266-5.9062-5.9062-13.914-9.2227-22.266-9.2227-8.3516 0-16.359 3.3164-22.266 9.2227-5.9062 5.9023-9.2227 13.914-9.2227 22.266 0 8.3477 3.3164 16.359 9.2227 22.262 5.9062 5.9062 13.914 9.2227 22.266 9.2227 8.3516 0 16.359-3.3164 22.266-9.2227 5.9062-5.9023 9.2227-13.914 9.2227-22.262zm125.95-173.19c0 4.1758-1.6602 8.1797-4.6133 11.133-2.9531 2.9531-6.957 4.6133-11.133 4.6133h-15.742l-15.746 299.92c-0.19922 4.0391-1.9492 7.8438-4.8789 10.629-2.9297 2.7852-6.8203 4.3359-10.863 4.3281h-220.42c-4.043 0.007813-7.9297-1.543-10.863-4.3281-2.9297-2.7852-4.6758-6.5898-4.8789-10.629l-15.742-299.14h-15.746c-5.7656 0-11.094-3.0742-13.977-8.0664-2.8828-4.9961-2.8828-11.145 0-16.141 2.8828-4.9922 8.2109-8.0664 13.977-8.0664h82.5l-3.7812-77.934c-0.10156-4.1758 1.457-8.2227 4.332-11.25 2.8789-3.0234 6.8438-4.7852 11.02-4.8867 4.1758-0.10547 8.2227 1.4531 11.246 4.332 3.0273 2.8789 4.7852 6.8398 4.8906 11.016l3.7812 78.723h200.89c4.1758 0 8.1797 1.6562 11.133 4.6094 2.9531 2.9531 4.6133 6.957 4.6133 11.133zm-77.934 299.14 8.1875-162.64v0.003907c-21.812-1.1406-43.195-6.4883-62.977-15.746-12.691-6.0664-26.426-9.6484-40.461-10.547-14.285 0.96875-28.242 4.7109-41.094 11.02-19.812 9.1719-41.18 14.512-62.977 15.742l9.6055 162.16zm14.957-283.39h-219.63l4.5664 89.426c18.016-0.97656 35.664-5.4688 51.953-13.227 16.613-7.7891 34.578-12.281 52.902-13.223 18.32 0.94141 36.289 5.4336 52.898 13.223 16.289 7.7578 33.941 12.25 51.957 13.227z"/>
</svg>