<?xml version="1.0" standalone="no"?>
<!DOCTYPE svg PUBLIC "-//W3C//DTD SVG 20010904//EN"
 "http://www.w3.org/TR/2001/REC-SVG-20010904/DTD/svg10.dtd">
<svg version="1.0" xmlns="http://www.w3.org/2000/svg"
 width="300.000000pt" height="225.000000pt" viewBox="0 0 300.000000 225.000000"
 preserveAspectRatio="xMidYMid meet">
<metadata>
Created by potrace 1.10, written by Peter Selinger 2001-2011
</metadata>
<g transform="translate(0.000000,225.000000) scale(0.100000,-0.100000)"
fill="#000000" stroke="none">
<path d="M1233 1451 c-83 -38 -132 -149 -101 -229 13 -34 12 -41 -5 -81 -25
-56 -24 -147 1 -204 28 -63 67 -103 130 -134 56 -28 60 -28 242 -28 173 0 188
2 237 24 62 28 125 92 144 147 18 55 17 141 -4 195 -14 36 -15 52 -7 73 33 88
-19 204 -109 242 -89 37 -207 -5 -241 -87 -13 -30 -30 -39 -30 -15 0 23 -49
75 -91 96 -48 25 -112 25 -166 1z m144 -16 c50 -21 72 -42 94 -90 24 -52 24
-85 -1 -138 -42 -89 -163 -127 -241 -74 -55 37 -79 81 -79 147 0 71 27 116 90
148 52 26 87 28 137 7z m382 -5 c95 -48 125 -164 65 -255 -23 -35 -87 -65
-138 -65 -180 0 -235 247 -72 321 53 24 97 24 145 -1z m-202 -292 c34 -35 112
-62 155 -53 45 10 108 43 115 60 7 20 19 19 28 -2 37 -98 17 -202 -55 -274
-64 -64 -97 -71 -321 -67 l-186 3 -49 30 c-63 40 -103 104 -111 178 -6 54 11
147 27 147 3 0 17 -11 30 -25 29 -31 117 -59 157 -49 70 17 125 62 147 118 6
18 8 17 22 -10 8 -16 27 -41 41 -56z"/>
<path d="M1374 1322 c-6 -4 -16 -17 -23 -30 -10 -19 -8 -26 13 -47 25 -25 44
-25 74 -2 41 32 -20 109 -64 79z"/>
<path d="M1567 1312 c-24 -27 -21 -59 8 -78 23 -15 27 -15 50 0 46 30 26 96
-28 96 -8 0 -21 -8 -30 -18z"/>
<path d="M1342 908 c7 -24 109 -68 157 -68 66 0 179 55 158 77 -3 3 -19 -4
-35 -15 -46 -34 -114 -46 -169 -33 -26 7 -59 21 -74 32 -31 22 -42 24 -37 7z"/>
</g>
</svg>
