<?xml version="1.0" standalone="no"?>
<!DOCTYPE svg PUBLIC "-//W3C//DTD SVG 20010904//EN"
 "http://www.w3.org/TR/2001/REC-SVG-20010904/DTD/svg10.dtd">
<svg version="1.0" xmlns="http://www.w3.org/2000/svg"
 width="228.000000pt" height="221.000000pt" viewBox="0 0 228.000000 221.000000"
 preserveAspectRatio="xMidYMid meet">
<metadata>
Created by potrace 1.10, written by Peter Selinger 2001-2011
</metadata>
<g transform="translate(0.000000,221.000000) scale(0.100000,-0.100000)"
fill="#000000" stroke="none">
<path d="M2053 2145 c-36 -16 -49 -47 -39 -99 6 -31 4 -34 -21 -41 -47 -11
-188 -81 -301 -148 -59 -35 -140 -83 -179 -106 l-73 -42 0 -63 0 -63 -67 20
c-122 35 -383 27 -487 -17 l-38 -16 7 49 c4 31 2 57 -5 71 -8 15 -100 66 -284
155 -149 73 -281 136 -292 139 -16 5 -20 12 -17 26 13 50 -51 119 -97 105 -31
-10 -60 -55 -60 -92 0 -41 37 -83 74 -83 30 0 26 22 61 -345 32 -342 34 -352
83 -372 20 -9 54 -18 75 -21 42 -5 42 -5 21 -63 -9 -24 -18 -89 -21 -145 -7
-121 12 -223 56 -300 40 -69 124 -149 194 -184 32 -16 58 -31 58 -35 0 -3 -33
-30 -72 -60 -69 -51 -73 -53 -95 -38 -50 32 -119 -21 -96 -73 25 -53 104 -55
117 -1 6 23 7 23 123 19 64 -2 122 -5 128 -7 9 -3 64 -106 64 -120 0 -3 -7 -5
-15 -5 -17 0 -35 -30 -35 -58 0 -52 87 -72 117 -26 16 24 16 29 1 54 l-16 28
51 23 c28 13 75 38 104 56 l53 32 47 -21 c37 -16 125 -65 151 -84 2 -1 -2 -11
-9 -22 -17 -27 1 -68 36 -84 56 -25 105 35 71 87 -9 14 -23 25 -31 25 -20 0
-19 0 12 65 l27 55 97 0 c54 0 104 3 113 6 10 4 16 1 16 -8 0 -19 42 -58 63
-58 25 0 57 36 57 64 0 38 -27 59 -70 53 -31 -4 -48 2 -101 36 l-63 40 43 19
c97 41 119 55 176 113 101 101 155 238 155 395 0 88 -15 162 -43 217 -10 18
-17 36 -17 41 0 5 21 15 48 21 84 21 87 27 101 143 16 142 71 538 78 566 3 15
13 22 29 22 14 0 30 10 41 27 21 31 22 99 2 118 -22 21 -71 26 -106 10z m81
-21 c9 -8 16 -31 16 -49 0 -39 -22 -65 -53 -65 -66 0 -94 84 -39 114 35 20 57
20 76 0z m-1922 -51 c26 -23 24 -78 -4 -97 -30 -21 -44 -20 -68 4 -55 55 14
146 72 93z m1851 -93 c-1 -8 -9 -53 -17 -100 -8 -47 -27 -186 -41 -310 -15
-124 -29 -235 -31 -246 -3 -18 -16 -25 -71 -37 -58 -13 -69 -13 -76 -1 -20 36
-118 139 -172 180 -32 25 -90 60 -127 77 l-68 32 0 63 c0 34 4 62 8 62 4 0 84
45 178 101 93 55 201 115 239 133 39 17 86 39 105 49 42 19 76 18 73 -3z
m-1534 -151 l290 -142 3 -60 3 -61 -75 -37 c-82 -41 -190 -125 -231 -180 -20
-27 -73 -116 -74 -126 -1 -6 -132 32 -142 41 -7 6 -22 116 -37 261 -14 138
-30 290 -36 339 -8 80 -7 106 5 106 3 0 135 -64 294 -141z m841 -259 c152 -45
270 -117 370 -228 163 -181 194 -387 90 -609 -37 -81 -81 -134 -144 -178 -64
-44 -74 -44 -43 -2 35 46 47 90 47 167 0 54 -6 78 -30 127 -36 73 -120 162
-179 192 l-42 22 -52 -20 c-29 -11 -82 -33 -119 -50 -93 -43 -123 -40 -247 19
-57 28 -113 50 -125 50 -63 -1 -191 -90 -246 -172 -65 -98 -77 -220 -30 -309
19 -37 19 -39 2 -27 -140 99 -203 223 -203 399 -1 217 89 389 266 509 71 49
218 110 300 126 101 20 290 12 385 -16z m-350 -585 c63 -30 128 -55 145 -55
16 0 84 25 149 55 l120 55 53 -35 c93 -62 171 -178 180 -269 7 -65 -9 -121
-50 -183 -28 -42 -40 -51 -99 -70 -202 -68 -500 -69 -723 -2 -144 43 -180 87
-180 219 0 103 22 156 96 230 43 43 155 110 183 110 6 0 63 -25 126 -55z
m-182 -545 c182 -46 444 -51 605 -12 l78 20 67 -45 c37 -25 69 -49 70 -54 2
-5 -47 -9 -111 -9 -127 0 -120 4 -163 -80 -15 -30 -28 -56 -30 -58 -1 -2 -33
17 -70 41 -38 24 -89 51 -113 61 -40 15 -45 15 -68 1 -34 -23 -206 -116 -208
-113 0 2 -11 26 -24 53 -42 92 -36 89 -181 95 l-130 5 83 62 c59 45 88 61 102
57 11 -3 53 -14 93 -24z m-302 -84 c18 -14 18 -17 4 -43 -19 -34 -45 -41 -71
-17 -23 21 -24 37 -3 58 19 20 44 20 70 2z m1206 -3 c38 -34 9 -86 -37 -65
-30 14 -34 56 -7 71 23 14 23 14 44 -6z m-338 -182 c20 -22 14 -56 -11 -65
-21 -8 -63 20 -63 42 0 41 45 55 74 23z m-494 -5 c19 -23 8 -61 -18 -64 -44
-7 -67 32 -36 62 19 20 38 20 54 2z"/>
<path d="M1045 1366 c-73 -36 -115 -98 -115 -171 0 -65 27 -109 85 -137 25
-12 45 -27 45 -34 0 -6 7 -15 16 -18 26 -10 164 -7 165 4 1 6 2 15 3 20 0 6
19 21 41 33 78 44 109 149 62 218 -12 18 -42 47 -66 64 -38 27 -52 30 -124 33
-56 1 -91 -2 -112 -12z m206 -33 c60 -31 99 -80 99 -125 0 -54 -46 -116 -102
-137 -18 -7 -26 -15 -22 -25 3 -8 1 -17 -4 -20 -17 -10 -42 5 -42 25 0 10 -4
19 -10 19 -5 0 -10 -9 -10 -20 0 -28 -30 -25 -31 3 l-2 22 -4 -22 c-5 -26 -37
-31 -50 -10 -4 8 -28 24 -51 38 -91 50 -98 153 -15 231 38 36 67 47 134 47 42
1 69 -6 110 -26z"/>
<path d="M1022 1210 c-26 -24 -29 -72 -6 -94 20 -20 27 -20 47 2 26 28 32 76
12 95 -21 22 -27 21 -53 -3z m46 -31 c2 -13 -4 -33 -13 -44 -15 -19 -15 -19
-29 -2 -15 19 -12 40 7 65 14 18 32 9 35 -19z"/>
<path d="M1224 1194 c-16 -64 44 -117 66 -59 13 35 -7 79 -37 83 -17 3 -24 -3
-29 -24z m45 2 c15 -18 10 -68 -7 -74 -15 -5 -30 34 -24 65 5 26 14 29 31 9z"/>
<path d="M720 922 c0 -5 9 -21 20 -34 23 -30 15 -45 -12 -21 -22 19 -24 5 -3
-23 9 -12 14 -42 15 -81 0 -49 4 -67 20 -83 20 -20 55 -26 77 -12 19 12 43 78
43 120 0 35 -3 40 -44 59 -24 12 -60 36 -80 53 -20 18 -36 28 -36 22z m111
-122 c6 -28 5 -69 -2 -64 -5 3 -9 -2 -9 -10 0 -9 -7 -16 -15 -16 -8 0 -15 6
-15 14 0 8 -4 16 -10 18 -6 2 -5 19 1 45 10 38 13 41 30 30 10 -6 19 -14 20
-17z"/>
<path d="M1534 905 c-9 -14 -43 -40 -76 -56 -35 -18 -58 -36 -59 -47 -6 -105
55 -178 116 -138 29 19 39 62 30 126 -4 29 -3 50 2 50 6 0 15 11 21 25 14 31
-3 33 -19 3 -7 -13 -14 -18 -16 -11 -2 6 3 23 13 38 9 14 14 28 11 31 -3 3
-13 -6 -23 -21z m-34 -183 c-8 -19 -13 -21 -30 -12 -20 11 -34 45 -28 71 2 7
14 19 28 25 24 10 25 9 33 -25 5 -21 4 -45 -3 -59z"/>
<path d="M1118 669 c-24 -13 -23 -42 2 -64 42 -38 105 18 70 61 -14 16 -47 18
-72 3z m66 -26 c9 -22 -2 -33 -30 -33 -31 0 -43 28 -20 46 21 15 42 9 50 -13z"/>
<path d="M1244 604 c-14 -38 -47 -64 -81 -64 -43 0 -92 25 -103 53 l-9 22 0
-22 c-1 -33 53 -73 100 -73 22 0 49 5 61 11 20 11 54 77 44 87 -3 2 -9 -4 -12
-14z"/>
</g>
</svg>
