<?xml version="1.0" standalone="no"?>
<!DOCTYPE svg PUBLIC "-//W3C//DTD SVG 20010904//EN"
 "http://www.w3.org/TR/2001/REC-SVG-20010904/DTD/svg10.dtd">
<svg version="1.0" xmlns="http://www.w3.org/2000/svg"
 width="300.000000pt" height="300.000000pt" viewBox="0 0 300.000000 300.000000"
 preserveAspectRatio="xMidYMid meet">
<metadata>
Created by potrace 1.10, written by Peter Selinger 2001-2011
</metadata>
<g transform="translate(0.000000,300.000000) scale(0.100000,-0.100000)"
fill="#000000" stroke="none">
<path d="M668 2955 c-97 -32 -200 -160 -242 -305 -37 -126 -30 -326 20 -523
27 -111 49 -161 66 -151 7 4 8 3 4 -5 -5 -8 -13 -7 -29 4 -25 17 -103 20 -144
4 -63 -24 -112 -100 -113 -174 0 -52 28 -130 60 -164 23 -24 24 -32 21 -110
-2 -59 -10 -98 -26 -135 -113 -256 -125 -547 -31 -759 50 -113 155 -241 255
-309 87 -61 277 -123 491 -162 236 -43 325 -50 565 -50 214 0 258 3 407 27
180 30 354 75 421 108 182 92 341 263 403 433 108 298 -5 746 -251 992 l-51
51 -17 149 c-30 272 -83 406 -211 536 -166 167 -370 202 -579 97 -72 -37 -171
-110 -193 -144 -15 -24 -16 -22 -73 88 -110 216 -238 379 -345 442 -107 63
-308 92 -408 60z m247 -75 c161 -41 263 -142 415 -411 29 -52 64 -111 77 -132
l24 -38 -50 -102 c-96 -198 -106 -360 -30 -514 55 -114 154 -187 287 -213 204
-40 478 110 589 323 42 80 73 159 67 168 -11 18 -23 7 -62 -59 -125 -210 -258
-319 -439 -358 -71 -15 -89 -15 -143 -4 -80 17 -156 63 -200 123 -136 179 -72
496 139 695 68 63 204 129 286 137 119 13 242 -28 335 -112 97 -87 169 -280
190 -506 17 -178 15 -173 102 -267 169 -183 245 -372 255 -630 5 -116 2 -148
-15 -218 -38 -149 -150 -300 -303 -408 -51 -36 -76 -59 -69 -64 11 -7 -4 -18
-35 -26 -5 -1 -19 -5 -30 -9 -20 -8 -20 -8 0 9 20 16 20 16 0 10 -17 -4 -16
-3 3 8 12 8 19 18 15 22 -4 5 -1 7 7 4 20 -6 77 57 102 112 42 95 33 262 -22
375 -112 232 -574 445 -964 445 -263 -1 -479 -60 -656 -180 -104 -71 -186
-182 -230 -314 -31 -91 -25 -206 15 -291 29 -60 126 -168 133 -146 4 13 22 5
22 -10 0 -6 -6 -7 -12 -3 -7 4 -5 -2 5 -13 17 -20 17 -20 -7 -16 -17 4 -23 10
-19 21 5 11 2 14 -10 9 -9 -3 -17 -3 -17 2 0 4 -19 17 -42 27 -54 24 -188 150
-242 229 -95 136 -121 228 -120 415 0 137 20 249 61 351 8 22 13 47 11 57 -4
13 1 18 18 18 12 0 22 -4 21 -10 -4 -18 67 -45 118 -45 29 0 68 8 94 19 52 24
131 101 159 157 28 54 65 63 107 24 66 -61 104 -76 190 -76 94 0 140 22 181
86 40 64 26 164 -34 231 -13 15 -13 20 -1 34 22 27 18 140 -8 195 -31 68 -81
102 -157 106 -52 3 -69 -1 -111 -24 -61 -34 -120 -115 -142 -195 -12 -42 -21
-57 -37 -61 -12 -2 -28 -7 -36 -11 -11 -4 -21 5 -34 29 -11 20 -41 52 -67 70
-33 25 -49 45 -57 72 -6 21 -17 63 -25 93 -49 179 -63 411 -32 530 9 36 29 88
43 115 35 65 111 141 153 154 56 16 151 12 234 -9z m595 -560 c0 -15 -14 -19
-31 -9 -15 7 -17 6 -13 -6 4 -8 10 -15 14 -15 5 0 6 -9 3 -21 -7 -27 -23 -11
-29 30 -5 30 -4 31 25 29 17 -1 31 -5 31 -8z m-127 -227 c-7 -3 -9 -11 -6 -19
3 -7 -2 -16 -10 -20 -9 -3 -13 -12 -11 -19 3 -7 1 -16 -5 -20 -7 -4 -10 2 -8
15 2 12 9 25 16 29 7 4 11 12 10 17 -4 22 2 35 13 28 9 -6 9 -9 1 -11z m-296
-43 c49 -30 66 -72 61 -150 -3 -39 -12 -77 -23 -93 -17 -27 -17 -28 8 -47 54
-43 76 -152 39 -196 -59 -71 -169 -70 -272 1 l-38 27 20 34 c14 24 19 47 16
74 l-4 40 58 0 c31 0 60 5 64 11 12 21 -17 34 -80 34 -49 1 -69 6 -91 23 -15
12 -32 22 -36 22 -26 0 12 98 62 161 59 75 150 100 216 59z m-552 -138 c22
-11 59 -40 83 -65 37 -38 41 -45 28 -56 -8 -7 -20 -27 -26 -44 -8 -26 -20 -36
-62 -52 -56 -22 -80 -47 -62 -65 8 -8 22 -4 49 14 42 29 75 34 75 11 0 -26 31
-65 67 -84 l35 -17 -41 -52 c-54 -67 -130 -112 -193 -112 -41 0 -52 5 -83 35
-30 31 -35 42 -35 82 0 25 5 63 11 83 11 37 11 39 -26 72 -66 57 -92 146 -61
206 42 80 138 98 241 44z m814 -15 c-6 -10 -8 -25 -5 -33 3 -8 1 -14 -5 -14
-8 0 -8 35 1 90 0 3 4 -2 9 -9 6 -9 6 -22 0 -34z m-530 -123 c73 -61 34 -173
-61 -174 -54 0 -100 43 -100 93 0 92 93 139 161 81z m831 -601 c225 -37 483
-152 619 -277 99 -92 146 -208 139 -349 -5 -104 -23 -141 -106 -223 -75 -72
-86 -75 -362 -120 -278 -45 -505 -43 -835 7 -229 34 -265 46 -368 127 -102 80
-141 161 -141 292 1 200 162 387 419 488 103 41 152 51 305 67 137 14 187 12
330 -12z"/>
<path d="M859 837 c-44 -29 -79 -98 -79 -157 0 -87 72 -180 139 -180 15 0 42
8 61 19 110 58 107 272 -4 325 -46 22 -77 20 -117 -7z m126 -37 c13 -10 13
-15 3 -21 -10 -7 -8 -9 5 -9 22 0 39 -40 24 -58 -5 -7 -7 -15 -3 -19 3 -3 6 0
6 8 0 12 2 11 10 -1 6 -10 4 -22 -6 -39 -9 -13 -11 -20 -5 -17 16 10 13 -6 -6
-34 -10 -14 -16 -27 -14 -28 1 -2 -7 -13 -18 -23 -12 -11 -21 -17 -21 -14 0 3
-9 1 -20 -5 -12 -6 -20 -7 -20 -1 0 5 -10 7 -22 4 -19 -4 -20 -3 -8 6 13 9 12
11 -3 11 -12 0 -16 4 -11 13 5 8 2 8 -9 -2 -15 -11 -17 -11 -17 2 0 8 -6 17
-14 20 -8 3 -15 23 -18 45 -2 26 0 38 7 34 5 -3 4 1 -3 10 -9 12 -10 18 -2 23
7 4 10 16 7 26 -3 10 0 22 5 26 7 4 8 1 3 -7 -5 -9 -4 -11 4 -6 7 5 9 17 5 29
-3 12 -3 19 1 15 5 -5 14 1 22 11 10 15 23 19 57 17 25 -1 52 -8 61 -16z"/>
<path d="M1989 817 c-76 -51 -101 -159 -56 -247 41 -82 115 -110 176 -68 58
39 75 71 79 146 4 82 -24 144 -78 173 -46 25 -80 24 -121 -4z m91 -17 c0 -5 6
-9 13 -7 6 1 11 -4 9 -11 -1 -8 2 -11 7 -7 13 8 31 -27 31 -62 0 -19 3 -24 9
-15 7 11 9 11 14 -2 3 -8 -1 -22 -9 -31 -9 -8 -11 -15 -5 -15 12 0 7 -30 -14
-72 -17 -36 -84 -76 -96 -57 -3 6 -10 10 -14 9 -7 -2 -40 27 -61 52 -15 18
-24 68 -12 68 5 0 5 6 0 16 -11 21 13 95 36 109 19 11 73 33 85 34 4 1 7 -3 7
-9z"/>
<path d="M1452 588 c-48 -24 -39 -92 16 -115 99 -41 195 64 102 112 -33 17
-85 19 -118 3z m109 -28 c23 -13 24 -28 2 -52 -27 -30 -102 -20 -116 16 -14
37 65 61 114 36z"/>
<path d="M1585 369 c-36 -23 -118 -25 -155 -4 -32 18 -40 18 -40 1 0 -7 16
-21 36 -31 53 -25 145 -17 179 15 43 40 31 52 -20 19z"/>
</g>
</svg>
