<?xml version="1.0" standalone="no"?>
<!DOCTYPE svg PUBLIC "-//W3C//DTD SVG 20010904//EN"
 "http://www.w3.org/TR/2001/REC-SVG-20010904/DTD/svg10.dtd">
<svg version="1.0" xmlns="http://www.w3.org/2000/svg"
 width="220.000000pt" height="220.000000pt" viewBox="0 0 220.000000 220.000000"
 preserveAspectRatio="xMidYMid meet">
<metadata>
Created by potrace 1.10, written by Peter Selinger 2001-2011
</metadata>
<g transform="translate(0.000000,220.000000) scale(0.100000,-0.100000)"
fill="#000000" stroke="none">
<path d="M1075 1683 c-30 -7 -65 -44 -65 -67 0 -18 -11 -23 -93 -39 -145 -28
-233 -81 -243 -147 -5 -29 -15 -42 -52 -66 -98 -61 -239 -173 -290 -229 -146
-160 -165 -356 -45 -466 51 -48 90 -62 162 -57 61 4 68 2 107 -27 51 -39 147
-78 245 -100 102 -23 408 -31 536 -15 126 15 265 60 328 105 42 29 58 35 103
35 143 0 248 144 220 302 -26 145 -132 264 -390 438 -56 38 -67 50 -72 80 -11
68 -94 119 -242 148 -73 15 -85 20 -94 43 -9 21 -78 72 -91 68 -2 -1 -13 -3
-24 -6z m50 -52 c-3 8 5 1 19 -14 15 -16 24 -32 21 -37 -3 -5 0 -12 6 -16 8
-4 9 -3 5 4 -8 14 -4 15 18 6 9 -3 14 -10 11 -15 -3 -4 9 -10 27 -13 18 -3 49
-8 68 -11 19 -3 43 -7 52 -8 9 -1 15 -4 12 -8 -5 -9 25 -21 37 -13 5 3 9 -2 9
-11 0 -9 4 -14 8 -11 10 6 62 -37 62 -52 0 -6 4 -12 9 -14 11 -4 19 -34 10
-33 -4 0 -17 -9 -29 -20 -12 -11 -23 -19 -24 -17 0 2 -14 -1 -29 -7 -63 -24
-198 -43 -214 -29 -7 6 -16 8 -20 4 -3 -3 0 -6 8 -7 8 -1 -2 -5 -21 -9 -19 -5
-36 -5 -38 -2 -1 4 -26 5 -55 2 -28 -3 -77 -2 -107 2 -30 5 -69 9 -85 11 -17
2 -53 14 -80 27 -52 26 -55 27 -81 29 -10 1 -14 7 -10 17 4 9 2 13 -6 8 -6 -4
2 16 18 43 15 28 33 49 40 46 7 -2 15 1 20 8 5 8 3 10 -6 4 -9 -5 -11 -4 -6 4
6 9 11 9 24 -1 9 -7 13 -8 9 -2 -4 8 6 14 31 19 20 4 42 10 47 15 6 4 34 10
62 13 50 4 102 36 103 61 0 5 8 17 18 27 15 15 19 16 41 2 18 -12 22 -12 16
-2z m-270 -348 c53 -13 113 -17 250 -17 195 0 268 12 352 59 l42 23 88 -60
c188 -129 247 -184 304 -283 61 -106 60 -202 -2 -278 -27 -33 -112 -77 -125
-64 -3 3 2 19 11 37 59 113 16 308 -95 433 -33 36 -39 40 -54 28 -21 -17 -20
-35 1 -52 47 -39 104 -162 119 -255 16 -104 -53 -211 -171 -264 -227 -103
-732 -97 -935 11 -146 77 -198 192 -154 338 19 65 47 117 85 156 33 35 37 60
12 69 -49 19 -150 -150 -168 -281 -7 -57 15 -165 41 -194 39 -43 -64 -33 -118
11 -66 55 -89 137 -63 226 33 115 122 213 308 341 l118 81 42 -24 c24 -13 74
-31 112 -41z"/>
<path d="M705 990 c-11 -17 6 -32 31 -27 18 3 24 0 24 -13 0 -23 24 -43 46
-38 20 3 57 65 49 79 -8 12 -142 12 -150 -1z"/>
<path d="M1365 990 c-11 -17 6 -31 32 -28 19 2 27 -2 29 -16 3 -22 21 -36 47
-36 16 0 47 52 47 80 0 13 -147 13 -155 0z"/>
<path d="M1067 942 c-26 -5 -20 -38 10 -60 25 -18 26 -22 14 -49 -16 -40 -74
-69 -102 -53 -11 7 -11 15 -2 39 6 16 8 32 5 35 -25 26 -62 -39 -44 -79 21
-46 99 -45 147 3 19 18 29 23 32 14 14 -39 118 -56 146 -24 28 31 15 102 -18
102 -23 0 -28 -20 -9 -41 16 -18 16 -21 1 -36 -14 -14 -20 -15 -54 -2 -23 9
-43 26 -51 43 -13 26 -12 30 13 56 49 51 13 71 -88 52z"/>
</g>
</svg>
